HIERARCHY
ROOT Hips
{
	OFFSET 0.00000 0.00000 0.00000
	CHANNELS 6 Xposition Yposition Zposition Zrotation Yrotation Xrotation 
	JOINT LHipJoint
	{
		OFFSET 0 0 0
		CHANNELS 3 Zrotation Yrotation Xrotation
		JOINT LeftUpLeg
		{
			OFFSET 1.77779 -1.88989 0.48267
			CHANNELS 3 Zrotation Yrotation Xrotation
			JOINT LeftLeg
			{
				OFFSET 2.53442 -6.96327 0.00000
				CHANNELS 3 Zrotation Yrotation Xrotation
				JOINT LeftFoot
				{
					OFFSET 2.71068 -7.44755 0.00000
					CHANNELS 3 Zrotation Yrotation Xrotation
					JOINT LeftToeBase
					{
						OFFSET 0.17992 -0.49431 2.22524
						CHANNELS 3 Zrotation Yrotation Xrotation
						End Site
						{
							OFFSET 0.00000 -0.00000 1.14687
						}
					}
				}
			}
		}
	}
	JOINT RHipJoint
	{
		OFFSET 0 0 0
		CHANNELS 3 Zrotation Yrotation Xrotation
		JOINT RightUpLeg
		{
			OFFSET -1.58469 -1.88989 0.48267
			CHANNELS 3 Zrotation Yrotation Xrotation
			JOINT RightLeg
			{
				OFFSET -2.60386 -7.15404 0.00000
				CHANNELS 3 Zrotation Yrotation Xrotation
				JOINT RightFoot
				{
					OFFSET -2.73334 -7.50979 0.00000
					CHANNELS 3 Zrotation Yrotation Xrotation
					JOINT RightToeBase
					{
						OFFSET -0.25618 -0.70384 2.21822
						CHANNELS 3 Zrotation Yrotation Xrotation
						End Site
						{
							OFFSET -0.00000 -0.00000 1.16381
						}
					}
				}
			}
		}
	}
	JOINT LowerBack
	{
		OFFSET 0 0 0
		CHANNELS 3 Zrotation Yrotation Xrotation
		JOINT Spine
		{
			OFFSET 0.03410 2.01612 -0.22230
			CHANNELS 3 Zrotation Yrotation Xrotation
			JOINT Spine1
			{
				OFFSET 0.03465 2.03012 0.00937
				CHANNELS 3 Zrotation Yrotation Xrotation
				JOINT Neck
				{
					OFFSET 0 0 0
					CHANNELS 3 Zrotation Yrotation Xrotation
					JOINT Neck1
					{
						OFFSET -0.00219 1.70459 0.20857
						CHANNELS 3 Zrotation Yrotation Xrotation
						JOINT Head
						{
							OFFSET 0.02518 1.72339 -0.22179
							CHANNELS 3 Zrotation Yrotation Xrotation
							End Site
							{
								OFFSET 0.00282 1.74122 -0.09823
							}
						}
					}
				}
				JOINT LeftShoulder
				{
					OFFSET 0 0 0
					CHANNELS 3 Zrotation Yrotation Xrotation
					JOINT LeftArm
					{
						OFFSET 3.36358 1.00547 -0.37661
						CHANNELS 3 Zrotation Yrotation Xrotation
						JOINT LeftForeArm
						{
							OFFSET 5.06507 -0.00000 0.00000
							CHANNELS 3 Zrotation Yrotation Xrotation
							JOINT LeftHand
							{
								OFFSET 3.60196 -0.00000 0.00000
								CHANNELS 3 Zrotation Yrotation Xrotation
								JOINT LeftFingerBase
								{
									OFFSET 0 0 0
									CHANNELS 3 Zrotation Yrotation Xrotation
									JOINT LeftHandIndex1
									{
										OFFSET 0.45035 -0.00000 0.00000
										CHANNELS 3 Zrotation Yrotation Xrotation
										End Site
										{
											OFFSET 0.36308 -0.00000 0.00000
										}
									}
								}
								JOINT LThumb
								{
									OFFSET 0 0 0
									CHANNELS 3 Zrotation Yrotation Xrotation
									End Site
									{
										OFFSET 0.36862 -0.00000 0.36862
									}
								}
							}
						}
					}
				}
				JOINT RightShoulder
				{
					OFFSET 0 0 0
					CHANNELS 3 Zrotation Yrotation Xrotation
					JOINT RightArm
					{
						OFFSET -3.50159 0.80383 -0.71526
						CHANNELS 3 Zrotation Yrotation Xrotation
						JOINT RightForeArm
						{
							OFFSET -5.36394 -0.00000 0.00000
							CHANNELS 3 Zrotation Yrotation Xrotation
							JOINT RightHand
							{
								OFFSET -3.58035 -0.00000 0.00000
								CHANNELS 3 Zrotation Yrotation Xrotation
								JOINT RightFingerBase
								{
									OFFSET 0 0 0
									CHANNELS 3 Zrotation Yrotation Xrotation
									JOINT RightHandIndex1
									{
										OFFSET -0.66375 -0.00000 0.00000
										CHANNELS 3 Zrotation Yrotation Xrotation
										End Site
										{
											OFFSET -0.53513 -0.00000 0.00000
										}
									}
								}
								JOINT RThumb
								{
									OFFSET 0 0 0
									CHANNELS 3 Zrotation Yrotation Xrotation
									End Site
									{
										OFFSET -0.54330 -0.00000 0.54330
									}
								}
							}
						}
					}
				}
			}
		}
	}
}
MOTION
Frames: 5
Frame Time: .0083333
-0.1156 17.1506 8.9633 -2.8909 -5.7151 3.3950 0.0000 0.0000 0.0000 -16.7331 3.9370 -4.5450 18.9460 19.9733 86.9169 0.5638 -6.0469 17.6711 0.0201 -0.9154 -2.5160 0.0000 0.0000 0.0000 29.4181 13.0522 -31.2754 -7.4883 -15.7296 50.6977 -0.6419 1.2066 -14.7712 -0.1914 -2.8174 7.7708 0.1908 -0.1727 17.0186 3.5864 0.1527 0.0961 3.7550 0.1588 -9.4895 -1.4585 -2.2738 -21.4202 1.4487 -2.9179 13.8650 0.3480 -1.3161 7.8223 0.0000 0.0000 0.0000 -86.1416 10.7003 53.6644 92.2715 -59.9805 -61.9671 -0.0000 0.0000 -30.4818 25.8520 0.7649 0.3706 -7.1250 0.0000 -0.0000 -0.5691 30.8293 0.1970 0.0000 0.0000 0.0000 92.1664 -19.3674 32.0998 -116.9801 57.0624 -83.1350 0.0000 -0.0000 -7.6129 -18.2890 37.2194 -11.3051 7.1250 -0.0000 -0.0000 8.3145 8.3186 9.5238
-0.1227 17.0747 9.4508 -3.9288 -5.6580 3.3451 0.0000 0.0000 0.0000 -14.2224 3.9667 -7.1239 20.1581 19.9994 90.4623 0.3950 -7.2049 16.6493 0.0709 -1.7178 -4.7264 0.0000 0.0000 0.0000 31.1416 12.9608 -29.5210 -7.7196 -15.9091 51.5465 -0.8249 -0.2593 -17.2618 -0.1827 -2.7532 7.5924 0.9745 -0.0544 17.5426 3.9115 0.5125 0.1185 3.5822 0.3045 -9.7821 -1.6114 -2.3615 -21.1051 1.5791 -3.0130 13.4353 0.4088 -1.3603 7.6323 -0.0000 -0.0000 0.0000 -86.5841 12.0193 52.8516 91.1885 -59.9947 -61.0292 -0.0000 0.0000 -29.8362 25.8558 0.8031 0.3892 -7.1250 0.0000 -0.0000 -0.5665 30.8718 0.1956 -0.0000 -0.0000 0.0000 91.4660 -17.7216 33.0796 -116.4932 57.1742 -82.7261 0.0000 -0.0000 -8.1624 -17.7545 36.3709 -10.7511 7.1250 -0.0000 -0.0000 8.4708 7.3696 9.5865
-0.1248 16.9982 9.9340 -5.0336 -5.5648 3.6439 0.0000 0.0000 0.0000 -11.6474 3.8415 -10.2371 21.3212 19.9581 93.8655 0.2216 -8.0809 15.2255 0.0908 -1.9435 -5.3494 0.0000 0.0000 0.0000 32.8360 13.0326 -27.8399 -7.8550 -16.0115 52.0386 -1.0159 -1.6567 -19.7064 -0.1045 -2.0844 5.7390 1.9177 -0.0042 17.6363 4.1656 0.8104 -0.0743 3.2519 0.4093 -10.0588 -1.5888 -2.4334 -20.1450 1.6884 -3.1407 12.8251 0.4377 -1.4186 7.2746 -0.0000 0.0000 0.0000 -86.7979 13.7156 52.0304 90.7270 -59.9980 -60.6296 -0.0000 0.0000 -29.0791 26.0389 1.5139 0.7395 -7.1250 0.0000 -0.0000 -0.4300 31.6644 0.1403 -0.0000 0.0000 0.0000 90.8768 -16.5842 34.1325 -116.5051 57.1715 -82.7361 0.0000 -0.0000 -8.1984 -17.4594 35.9184 -10.4539 7.1250 -0.0000 -0.0000 8.5639 6.8625 9.6282
-0.1253 16.9502 10.4288 -5.9085 -5.2672 4.0226 0.0000 0.0000 0.0000 -9.4804 3.3984 -13.4572 22.3100 19.8716 96.7680 0.0945 -8.6818 14.0137 0.0250 -1.0201 -2.8041 0.0000 0.0000 0.0000 34.1737 13.0264 -26.0997 -7.9020 -16.0467 52.2091 -1.1879 -3.0534 -21.8948 -0.0310 -1.1367 3.1251 2.7825 -0.0146 17.4988 4.3340 0.9911 -0.1973 2.8981 0.4564 -10.1163 -1.5898 -2.5080 -19.5273 1.9226 -3.2778 12.1569 0.5077 -1.4701 6.9598 -0.0000 -0.0000 0.0000 -86.8594 15.1493 51.4192 90.3534 -59.9995 -60.3060 -0.0000 0.0000 -28.3198 25.5039 3.7139 1.7699 -7.1250 0.0000 -0.0000 -0.9224 34.0922 0.2469 -0.0000 -0.0000 0.0000 90.3004 -15.4169 35.1479 -117.0899 57.0368 -83.2272 0.0000 -0.0000 -8.0542 -16.7969 36.1503 -10.0968 7.1250 -0.0000 -0.0000 8.9518 6.9637 10.0881
-0.1232 16.9185 10.9218 -6.0277 -4.8892 4.2210 0.0000 0.0000 0.0000 -8.4233 2.8279 -16.5888 23.1075 19.7669 99.1198 0.0035 -9.3128 13.3303 0.0070 -0.5417 -1.4886 0.0000 0.0000 0.0000 34.5962 12.8591 -24.2799 -7.9235 -16.0627 52.2868 -1.3963 -3.8557 -24.0031 -0.0144 -0.7758 2.1320 3.0023 0.0155 17.4693 4.2998 1.0679 -0.1442 2.7134 0.4808 -10.0383 -1.5875 -2.5501 -19.6193 2.1073 -3.3547 11.6952 0.5600 -1.4919 6.8289 -0.0000 -0.0000 0.0000 -86.8018 16.2159 50.9723 89.9790 -60.0000 -59.9818 -0.0000 0.0000 -28.0350 23.7644 7.3017 3.2030 -7.1250 0.0000 -0.0000 -2.6019 37.9380 0.4528 -0.0000 -0.0000 0.0000 89.8131 -13.8321 36.0780 -117.8965 56.8449 -83.9032 0.0000 -0.0000 -7.9605 -16.0394 35.9953 -9.5903 7.1250 -0.0000 -0.0000 9.3370 6.6671 10.4908
